<?xml version="1.0" encoding="UTF-8"?>
<svg xmlns="http://www.w3.org/2000/svg" viewBox="0.00 0.00 100.00 100.00">
 <line id="0" x1="50.00" y1="50.00" x2="70.00" y2="50.00"
        stroke="hsl(0,100%,50%" stroke-width="1.00" />
 <line id="1" x1="70.00" y1="50.00" x2="80.00" y2="32.68"
        stroke="hsl(0,100%,50%" stroke-width="1.00" />
 <line id="2" x1="80.00" y1="32.68" x2="70.00" y2="15.36"
        stroke="hsl(0,100%,50%" stroke-width="1.00" />
 <line id="3" x1="70.00" y1="15.36" x2="50.00" y2="15.36"
        stroke="hsl(0,100%,50%" stroke-width="1.00" />
 <line id="4" x1="50.00" y1="15.36" x2="40.00" y2="32.68"
        stroke="hsl(0,100%,50%" stroke-width="1.00" />
 <line id="5" x1="40.00" y1="32.68" x2="50.00" y2="50.00"
        stroke="hsl(0,100%,50%" stroke-width="1.00" />
 <line id="6" x1="50.00" y1="50.00" x2="69.70" y2="46.53"
        stroke="hsl(10,100%,50%" stroke-width="1.00" />
 <line id="7" x1="69.70" y1="46.53" x2="76.54" y2="27.73"
        stroke="hsl(10,100%,50%" stroke-width="1.00" />
 <line id="8" x1="76.54" y1="27.73" x2="63.68" y2="12.41"
        stroke="hsl(10,100%,50%" stroke-width="1.00" />
 <line id="9" x1="63.68" y1="12.41" x2="43.98" y2="15.89"
        stroke="hsl(10,100%,50%" stroke-width="1.00" />
 <line id="10" x1="43.98" y1="15.89" x2="37.14" y2="34.68"
        stroke="hsl(10,100%,50%" stroke-width="1.00" />
 <line id="11" x1="37.14" y1="34.68" x2="50.00" y2="50.00"
        stroke="hsl(10,100%,50%" stroke-width="1.00" />
 <line id="12" x1="50.00" y1="50.00" x2="68.79" y2="43.16"
        stroke="hsl(20,100%,50%" stroke-width="1.00" />
 <line id="13" x1="68.79" y1="43.16" x2="72.27" y2="23.46"
        stroke="hsl(20,100%,50%" stroke-width="1.00" />
 <line id="14" x1="72.27" y1="23.46" x2="56.95" y2="10.61"
        stroke="hsl(20,100%,50%" stroke-width="1.00" />
 <line id="15" x1="56.95" y1="10.61" x2="38.15" y2="17.45"
        stroke="hsl(20,100%,50%" stroke-width="1.00" />
 <line id="16" x1="38.15" y1="17.45" x2="34.68" y2="37.14"
        stroke="hsl(20,100%,50%" stroke-width="1.00" />
 <line id="17" x1="34.68" y1="37.14" x2="50.00" y2="50.00"
        stroke="hsl(20,100%,50%" stroke-width="1.00" />
 <line id="18" x1="50.00" y1="50.00" x2="67.32" y2="40.00"
        stroke="hsl(30,100%,50%" stroke-width="1.00" />
 <line id="19" x1="67.32" y1="40.00" x2="67.32" y2="20.00"
        stroke="hsl(30,100%,50%" stroke-width="1.00" />
 <line id="20" x1="67.32" y1="20.00" x2="50.00" y2="10.00"
        stroke="hsl(30,100%,50%" stroke-width="1.00" />
 <line id="21" x1="50.00" y1="10.00" x2="32.68" y2="20.00"
        stroke="hsl(30,100%,50%" stroke-width="1.00" />
 <line id="22" x1="32.68" y1="20.00" x2="32.68" y2="40.00"
        stroke="hsl(30,100%,50%" stroke-width="1.00" />
 <line id="23" x1="32.68" y1="40.00" x2="50.00" y2="50.00"
        stroke="hsl(30,100%,50%" stroke-width="1.00" />
 <line id="24" x1="50.00" y1="50.00" x2="65.32" y2="37.14"
        stroke="hsl(40,100%,50%" stroke-width="1.00" />
 <line id="25" x1="65.32" y1="37.14" x2="61.85" y2="17.45"
        stroke="hsl(40,100%,50%" stroke-width="1.00" />
 <line id="26" x1="61.85" y1="17.45" x2="43.05" y2="10.61"
        stroke="hsl(40,100%,50%" stroke-width="1.00" />
 <line id="27" x1="43.05" y1="10.61" x2="27.73" y2="23.46"
        stroke="hsl(40,100%,50%" stroke-width="1.00" />
 <line id="28" x1="27.73" y1="23.46" x2="31.21" y2="43.16"
        stroke="hsl(40,100%,50%" stroke-width="1.00" />
 <line id="29" x1="31.21" y1="43.16" x2="50.00" y2="50.00"
        stroke="hsl(40,100%,50%" stroke-width="1.00" />
 <line id="30" x1="50.00" y1="50.00" x2="62.86" y2="34.68"
        stroke="hsl(50,100%,50%" stroke-width="1.00" />
 <line id="31" x1="62.86" y1="34.68" x2="56.02" y2="15.89"
        stroke="hsl(50,100%,50%" stroke-width="1.00" />
 <line id="32" x1="56.02" y1="15.89" x2="36.32" y2="12.41"
        stroke="hsl(50,100%,50%" stroke-width="1.00" />
 <line id="33" x1="36.32" y1="12.41" x2="23.46" y2="27.73"
        stroke="hsl(50,100%,50%" stroke-width="1.00" />
 <line id="34" x1="23.46" y1="27.73" x2="30.30" y2="46.53"
        stroke="hsl(50,100%,50%" stroke-width="1.00" />
 <line id="35" x1="30.30" y1="46.53" x2="50.00" y2="50.00"
        stroke="hsl(50,100%,50%" stroke-width="1.00" />
 <line id="36" x1="50.00" y1="50.00" x2="60.00" y2="32.68"
        stroke="hsl(60,100%,50%" stroke-width="1.00" />
 <line id="37" x1="60.00" y1="32.68" x2="50.00" y2="15.36"
        stroke="hsl(60,100%,50%" stroke-width="1.00" />
 <line id="38" x1="50.00" y1="15.36" x2="30.00" y2="15.36"
        stroke="hsl(60,100%,50%" stroke-width="1.00" />
 <line id="39" x1="30.00" y1="15.36" x2="20.00" y2="32.68"
        stroke="hsl(60,100%,50%" stroke-width="1.00" />
 <line id="40" x1="20.00" y1="32.68" x2="30.00" y2="50.00"
        stroke="hsl(60,100%,50%" stroke-width="1.00" />
 <line id="41" x1="30.00" y1="50.00" x2="50.00" y2="50.00"
        stroke="hsl(60,100%,50%" stroke-width="1.00" />
 <line id="42" x1="50.00" y1="50.00" x2="56.84" y2="31.21"
        stroke="hsl(70,100%,50%" stroke-width="1.00" />
 <line id="43" x1="56.84" y1="31.21" x2="43.98" y2="15.89"
        stroke="hsl(70,100%,50%" stroke-width="1.00" />
 <line id="44" x1="43.98" y1="15.89" x2="24.29" y2="19.36"
        stroke="hsl(70,100%,50%" stroke-width="1.00" />
 <line id="45" x1="24.29" y1="19.36" x2="17.45" y2="38.15"
        stroke="hsl(70,100%,50%" stroke-width="1.00" />
 <line id="46" x1="17.45" y1="38.15" x2="30.30" y2="53.47"
        stroke="hsl(70,100%,50%" stroke-width="1.00" />
 <line id="47" x1="30.30" y1="53.47" x2="50.00" y2="50.00"
        stroke="hsl(70,100%,50%" stroke-width="1.00" />
 <line id="48" x1="50.00" y1="50.00" x2="53.47" y2="30.30"
        stroke="hsl(80,100%,50%" stroke-width="1.00" />
 <line id="49" x1="53.47" y1="30.30" x2="38.15" y2="17.45"
        stroke="hsl(80,100%,50%" stroke-width="1.00" />
 <line id="50" x1="38.15" y1="17.45" x2="19.36" y2="24.29"
        stroke="hsl(80,100%,50%" stroke-width="1.00" />
 <line id="51" x1="19.36" y1="24.29" x2="15.89" y2="43.98"
        stroke="hsl(80,100%,50%" stroke-width="1.00" />
 <line id="52" x1="15.89" y1="43.98" x2="31.21" y2="56.84"
        stroke="hsl(80,100%,50%" stroke-width="1.00" />
 <line id="53" x1="31.21" y1="56.84" x2="50.00" y2="50.00"
        stroke="hsl(80,100%,50%" stroke-width="1.00" />
 <line id="54" x1="50.00" y1="50.00" x2="50.00" y2="30.00"
        stroke="hsl(90,100%,50%" stroke-width="1.00" />
 <line id="55" x1="50.00" y1="30.00" x2="32.68" y2="20.00"
        stroke="hsl(90,100%,50%" stroke-width="1.00" />
 <line id="56" x1="32.68" y1="20.00" x2="15.36" y2="30.00"
        stroke="hsl(90,100%,50%" stroke-width="1.00" />
 <line id="57" x1="15.36" y1="30.00" x2="15.36" y2="50.00"
        stroke="hsl(90,100%,50%" stroke-width="1.00" />
 <line id="58" x1="15.36" y1="50.00" x2="32.68" y2="60.00"
        stroke="hsl(90,100%,50%" stroke-width="1.00" />
 <line id="59" x1="32.68" y1="60.00" x2="50.00" y2="50.00"
        stroke="hsl(90,100%,50%" stroke-width="1.00" />
 <line id="60" x1="50.00" y1="50.00" x2="46.53" y2="30.30"
        stroke="hsl(100,100%,50%" stroke-width="1.00" />
 <line id="61" x1="46.53" y1="30.30" x2="27.73" y2="23.46"
        stroke="hsl(100,100%,50%" stroke-width="1.00" />
 <line id="62" x1="27.73" y1="23.46" x2="12.41" y2="36.32"
        stroke="hsl(100,100%,50%" stroke-width="1.00" />
 <line id="63" x1="12.41" y1="36.32" x2="15.89" y2="56.02"
        stroke="hsl(100,100%,50%" stroke-width="1.00" />
 <line id="64" x1="15.89" y1="56.02" x2="34.68" y2="62.86"
        stroke="hsl(100,100%,50%" stroke-width="1.00" />
 <line id="65" x1="34.68" y1="62.86" x2="50.00" y2="50.00"
        stroke="hsl(100,100%,50%" stroke-width="1.00" />
 <line id="66" x1="50.00" y1="50.00" x2="43.16" y2="31.21"
        stroke="hsl(110,100%,50%" stroke-width="1.00" />
 <line id="67" x1="43.16" y1="31.21" x2="23.46" y2="27.73"
        stroke="hsl(110,100%,50%" stroke-width="1.00" />
 <line id="68" x1="23.46" y1="27.73" x2="10.61" y2="43.05"
        stroke="hsl(110,100%,50%" stroke-width="1.00" />
 <line id="69" x1="10.61" y1="43.05" x2="17.45" y2="61.85"
        stroke="hsl(110,100%,50%" stroke-width="1.00" />
 <line id="70" x1="17.45" y1="61.85" x2="37.14" y2="65.32"
        stroke="hsl(110,100%,50%" stroke-width="1.00" />
 <line id="71" x1="37.14" y1="65.32" x2="50.00" y2="50.00"
        stroke="hsl(110,100%,50%" stroke-width="1.00" />
 <line id="72" x1="50.00" y1="50.00" x2="40.00" y2="32.68"
        stroke="hsl(120,100%,50%" stroke-width="1.00" />
 <line id="73" x1="40.00" y1="32.68" x2="20.00" y2="32.68"
        stroke="hsl(120,100%,50%" stroke-width="1.00" />
 <line id="74" x1="20.00" y1="32.68" x2="10.00" y2="50.00"
        stroke="hsl(120,100%,50%" stroke-width="1.00" />
 <line id="75" x1="10.00" y1="50.00" x2="20.00" y2="67.32"
        stroke="hsl(120,100%,50%" stroke-width="1.00" />
 <line id="76" x1="20.00" y1="67.32" x2="40.00" y2="67.32"
        stroke="hsl(120,100%,50%" stroke-width="1.00" />
 <line id="77" x1="40.00" y1="67.32" x2="50.00" y2="50.00"
        stroke="hsl(120,100%,50%" stroke-width="1.00" />
 <line id="78" x1="50.00" y1="50.00" x2="37.14" y2="34.68"
        stroke="hsl(130,100%,50%" stroke-width="1.00" />
 <line id="79" x1="37.14" y1="34.68" x2="17.45" y2="38.15"
        stroke="hsl(130,100%,50%" stroke-width="1.00" />
 <line id="80" x1="17.45" y1="38.15" x2="10.61" y2="56.95"
        stroke="hsl(130,100%,50%" stroke-width="1.00" />
 <line id="81" x1="10.61" y1="56.95" x2="23.46" y2="72.27"
        stroke="hsl(130,100%,50%" stroke-width="1.00" />
 <line id="82" x1="23.46" y1="72.27" x2="43.16" y2="68.79"
        stroke="hsl(130,100%,50%" stroke-width="1.00" />
 <line id="83" x1="43.16" y1="68.79" x2="50.00" y2="50.00"
        stroke="hsl(130,100%,50%" stroke-width="1.00" />
 <line id="84" x1="50.00" y1="50.00" x2="34.68" y2="37.14"
        stroke="hsl(140,100%,50%" stroke-width="1.00" />
 <line id="85" x1="34.68" y1="37.14" x2="15.89" y2="43.98"
        stroke="hsl(140,100%,50%" stroke-width="1.00" />
 <line id="86" x1="15.89" y1="43.98" x2="12.41" y2="63.68"
        stroke="hsl(140,100%,50%" stroke-width="1.00" />
 <line id="87" x1="12.41" y1="63.68" x2="27.73" y2="76.54"
        stroke="hsl(140,100%,50%" stroke-width="1.00" />
 <line id="88" x1="27.73" y1="76.54" x2="46.53" y2="69.70"
        stroke="hsl(140,100%,50%" stroke-width="1.00" />
 <line id="89" x1="46.53" y1="69.70" x2="50.00" y2="50.00"
        stroke="hsl(140,100%,50%" stroke-width="1.00" />
 <line id="90" x1="50.00" y1="50.00" x2="32.68" y2="40.00"
        stroke="hsl(150,100%,50%" stroke-width="1.00" />
 <line id="91" x1="32.68" y1="40.00" x2="15.36" y2="50.00"
        stroke="hsl(150,100%,50%" stroke-width="1.00" />
 <line id="92" x1="15.36" y1="50.00" x2="15.36" y2="70.00"
        stroke="hsl(150,100%,50%" stroke-width="1.00" />
 <line id="93" x1="15.36" y1="70.00" x2="32.68" y2="80.00"
        stroke="hsl(150,100%,50%" stroke-width="1.00" />
 <line id="94" x1="32.68" y1="80.00" x2="50.00" y2="70.00"
        stroke="hsl(150,100%,50%" stroke-width="1.00" />
 <line id="95" x1="50.00" y1="70.00" x2="50.00" y2="50.00"
        stroke="hsl(150,100%,50%" stroke-width="1.00" />
 <line id="96" x1="50.00" y1="50.00" x2="31.21" y2="43.16"
        stroke="hsl(160,100%,50%" stroke-width="1.00" />
 <line id="97" x1="31.21" y1="43.16" x2="15.89" y2="56.02"
        stroke="hsl(160,100%,50%" stroke-width="1.00" />
 <line id="98" x1="15.89" y1="56.02" x2="19.36" y2="75.71"
        stroke="hsl(160,100%,50%" stroke-width="1.00" />
 <line id="99" x1="19.36" y1="75.71" x2="38.15" y2="82.55"
        stroke="hsl(160,100%,50%" stroke-width="1.00" />
 <line id="100" x1="38.15" y1="82.55" x2="53.47" y2="69.70"
        stroke="hsl(160,100%,50%" stroke-width="1.00" />
 <line id="101" x1="53.47" y1="69.70" x2="50.00" y2="50.00"
        stroke="hsl(160,100%,50%" stroke-width="1.00" />
 <line id="102" x1="50.00" y1="50.00" x2="30.30" y2="46.53"
        stroke="hsl(170,100%,50%" stroke-width="1.00" />
 <line id="103" x1="30.30" y1="46.53" x2="17.45" y2="61.85"
        stroke="hsl(170,100%,50%" stroke-width="1.00" />
 <line id="104" x1="17.45" y1="61.85" x2="24.29" y2="80.64"
        stroke="hsl(170,100%,50%" stroke-width="1.00" />
 <line id="105" x1="24.29" y1="80.64" x2="43.98" y2="84.11"
        stroke="hsl(170,100%,50%" stroke-width="1.00" />
 <line id="106" x1="43.98" y1="84.11" x2="56.84" y2="68.79"
        stroke="hsl(170,100%,50%" stroke-width="1.00" />
 <line id="107" x1="56.84" y1="68.79" x2="50.00" y2="50.00"
        stroke="hsl(170,100%,50%" stroke-width="1.00" />
 <line id="108" x1="50.00" y1="50.00" x2="30.00" y2="50.00"
        stroke="hsl(180,100%,50%" stroke-width="1.00" />
 <line id="109" x1="30.00" y1="50.00" x2="20.00" y2="67.32"
        stroke="hsl(180,100%,50%" stroke-width="1.00" />
 <line id="110" x1="20.00" y1="67.32" x2="30.00" y2="84.64"
        stroke="hsl(180,100%,50%" stroke-width="1.00" />
 <line id="111" x1="30.00" y1="84.64" x2="50.00" y2="84.64"
        stroke="hsl(180,100%,50%" stroke-width="1.00" />
 <line id="112" x1="50.00" y1="84.64" x2="60.00" y2="67.32"
        stroke="hsl(180,100%,50%" stroke-width="1.00" />
 <line id="113" x1="60.00" y1="67.32" x2="50.00" y2="50.00"
        stroke="hsl(180,100%,50%" stroke-width="1.00" />
 <line id="114" x1="50.00" y1="50.00" x2="30.30" y2="53.47"
        stroke="hsl(190,100%,50%" stroke-width="1.00" />
 <line id="115" x1="30.30" y1="53.47" x2="23.46" y2="72.27"
        stroke="hsl(190,100%,50%" stroke-width="1.00" />
 <line id="116" x1="23.46" y1="72.27" x2="36.32" y2="87.59"
        stroke="hsl(190,100%,50%" stroke-width="1.00" />
 <line id="117" x1="36.32" y1="87.59" x2="56.02" y2="84.11"
        stroke="hsl(190,100%,50%" stroke-width="1.00" />
 <line id="118" x1="56.02" y1="84.11" x2="62.86" y2="65.32"
        stroke="hsl(190,100%,50%" stroke-width="1.00" />
 <line id="119" x1="62.86" y1="65.32" x2="50.00" y2="50.00"
        stroke="hsl(190,100%,50%" stroke-width="1.00" />
 <line id="120" x1="50.00" y1="50.00" x2="31.21" y2="56.84"
        stroke="hsl(200,100%,50%" stroke-width="1.00" />
 <line id="121" x1="31.21" y1="56.84" x2="27.73" y2="76.54"
        stroke="hsl(200,100%,50%" stroke-width="1.00" />
 <line id="122" x1="27.73" y1="76.54" x2="43.05" y2="89.39"
        stroke="hsl(200,100%,50%" stroke-width="1.00" />
 <line id="123" x1="43.05" y1="89.39" x2="61.85" y2="82.55"
        stroke="hsl(200,100%,50%" stroke-width="1.00" />
 <line id="124" x1="61.85" y1="82.55" x2="65.32" y2="62.86"
        stroke="hsl(200,100%,50%" stroke-width="1.00" />
 <line id="125" x1="65.32" y1="62.86" x2="50.00" y2="50.00"
        stroke="hsl(200,100%,50%" stroke-width="1.00" />
 <line id="126" x1="50.00" y1="50.00" x2="32.68" y2="60.00"
        stroke="hsl(210,100%,50%" stroke-width="1.00" />
 <line id="127" x1="32.68" y1="60.00" x2="32.68" y2="80.00"
        stroke="hsl(210,100%,50%" stroke-width="1.00" />
 <line id="128" x1="32.68" y1="80.00" x2="50.00" y2="90.00"
        stroke="hsl(210,100%,50%" stroke-width="1.00" />
 <line id="129" x1="50.00" y1="90.00" x2="67.32" y2="80.00"
        stroke="hsl(210,100%,50%" stroke-width="1.00" />
 <line id="130" x1="67.32" y1="80.00" x2="67.32" y2="60.00"
        stroke="hsl(210,100%,50%" stroke-width="1.00" />
 <line id="131" x1="67.32" y1="60.00" x2="50.00" y2="50.00"
        stroke="hsl(210,100%,50%" stroke-width="1.00" />
 <line id="132" x1="50.00" y1="50.00" x2="34.68" y2="62.86"
        stroke="hsl(220,100%,50%" stroke-width="1.00" />
 <line id="133" x1="34.68" y1="62.86" x2="38.15" y2="82.55"
        stroke="hsl(220,100%,50%" stroke-width="1.00" />
 <line id="134" x1="38.15" y1="82.55" x2="56.95" y2="89.39"
        stroke="hsl(220,100%,50%" stroke-width="1.00" />
 <line id="135" x1="56.95" y1="89.39" x2="72.27" y2="76.54"
        stroke="hsl(220,100%,50%" stroke-width="1.00" />
 <line id="136" x1="72.27" y1="76.54" x2="68.79" y2="56.84"
        stroke="hsl(220,100%,50%" stroke-width="1.00" />
 <line id="137" x1="68.79" y1="56.84" x2="50.00" y2="50.00"
        stroke="hsl(220,100%,50%" stroke-width="1.00" />
 <line id="138" x1="50.00" y1="50.00" x2="37.14" y2="65.32"
        stroke="hsl(230,100%,50%" stroke-width="1.00" />
 <line id="139" x1="37.14" y1="65.32" x2="43.98" y2="84.11"
        stroke="hsl(230,100%,50%" stroke-width="1.00" />
 <line id="140" x1="43.98" y1="84.11" x2="63.68" y2="87.59"
        stroke="hsl(230,100%,50%" stroke-width="1.00" />
 <line id="141" x1="63.68" y1="87.59" x2="76.54" y2="72.27"
        stroke="hsl(230,100%,50%" stroke-width="1.00" />
 <line id="142" x1="76.54" y1="72.27" x2="69.70" y2="53.47"
        stroke="hsl(230,100%,50%" stroke-width="1.00" />
 <line id="143" x1="69.70" y1="53.47" x2="50.00" y2="50.00"
        stroke="hsl(230,100%,50%" stroke-width="1.00" />
 <line id="144" x1="50.00" y1="50.00" x2="40.00" y2="67.32"
        stroke="hsl(240,100%,50%" stroke-width="1.00" />
 <line id="145" x1="40.00" y1="67.32" x2="50.00" y2="84.64"
        stroke="hsl(240,100%,50%" stroke-width="1.00" />
 <line id="146" x1="50.00" y1="84.64" x2="70.00" y2="84.64"
        stroke="hsl(240,100%,50%" stroke-width="1.00" />
 <line id="147" x1="70.00" y1="84.64" x2="80.00" y2="67.32"
        stroke="hsl(240,100%,50%" stroke-width="1.00" />
 <line id="148" x1="80.00" y1="67.32" x2="70.00" y2="50.00"
        stroke="hsl(240,100%,50%" stroke-width="1.00" />
 <line id="149" x1="70.00" y1="50.00" x2="50.00" y2="50.00"
        stroke="hsl(240,100%,50%" stroke-width="1.00" />
 <line id="150" x1="50.00" y1="50.00" x2="43.16" y2="68.79"
        stroke="hsl(250,100%,50%" stroke-width="1.00" />
 <line id="151" x1="43.16" y1="68.79" x2="56.02" y2="84.11"
        stroke="hsl(250,100%,50%" stroke-width="1.00" />
 <line id="152" x1="56.02" y1="84.11" x2="75.71" y2="80.64"
        stroke="hsl(250,100%,50%" stroke-width="1.00" />
 <line id="153" x1="75.71" y1="80.64" x2="82.55" y2="61.85"
        stroke="hsl(250,100%,50%" stroke-width="1.00" />
 <line id="154" x1="82.55" y1="61.85" x2="69.70" y2="46.53"
        stroke="hsl(250,100%,50%" stroke-width="1.00" />
 <line id="155" x1="69.70" y1="46.53" x2="50.00" y2="50.00"
        stroke="hsl(250,100%,50%" stroke-width="1.00" />
 <line id="156" x1="50.00" y1="50.00" x2="46.53" y2="69.70"
        stroke="hsl(260,100%,50%" stroke-width="1.00" />
 <line id="157" x1="46.53" y1="69.70" x2="61.85" y2="82.55"
        stroke="hsl(260,100%,50%" stroke-width="1.00" />
 <line id="158" x1="61.85" y1="82.55" x2="80.64" y2="75.71"
        stroke="hsl(260,100%,50%" stroke-width="1.00" />
 <line id="159" x1="80.64" y1="75.71" x2="84.11" y2="56.02"
        stroke="hsl(260,100%,50%" stroke-width="1.00" />
 <line id="160" x1="84.11" y1="56.02" x2="68.79" y2="43.16"
        stroke="hsl(260,100%,50%" stroke-width="1.00" />
 <line id="161" x1="68.79" y1="43.16" x2="50.00" y2="50.00"
        stroke="hsl(260,100%,50%" stroke-width="1.00" />
 <line id="162" x1="50.00" y1="50.00" x2="50.00" y2="70.00"
        stroke="hsl(270,100%,50%" stroke-width="1.00" />
 <line id="163" x1="50.00" y1="70.00" x2="67.32" y2="80.00"
        stroke="hsl(270,100%,50%" stroke-width="1.00" />
 <line id="164" x1="67.32" y1="80.00" x2="84.64" y2="70.00"
        stroke="hsl(270,100%,50%" stroke-width="1.00" />
 <line id="165" x1="84.64" y1="70.00" x2="84.64" y2="50.00"
        stroke="hsl(270,100%,50%" stroke-width="1.00" />
 <line id="166" x1="84.64" y1="50.00" x2="67.32" y2="40.00"
        stroke="hsl(270,100%,50%" stroke-width="1.00" />
 <line id="167" x1="67.32" y1="40.00" x2="50.00" y2="50.00"
        stroke="hsl(270,100%,50%" stroke-width="1.00" />
 <line id="168" x1="50.00" y1="50.00" x2="53.47" y2="69.70"
        stroke="hsl(280,100%,50%" stroke-width="1.00" />
 <line id="169" x1="53.47" y1="69.70" x2="72.27" y2="76.54"
        stroke="hsl(280,100%,50%" stroke-width="1.00" />
 <line id="170" x1="72.27" y1="76.54" x2="87.59" y2="63.68"
        stroke="hsl(280,100%,50%" stroke-width="1.00" />
 <line id="171" x1="87.59" y1="63.68" x2="84.11" y2="43.98"
        stroke="hsl(280,100%,50%" stroke-width="1.00" />
 <line id="172" x1="84.11" y1="43.98" x2="65.32" y2="37.14"
        stroke="hsl(280,100%,50%" stroke-width="1.00" />
 <line id="173" x1="65.32" y1="37.14" x2="50.00" y2="50.00"
        stroke="hsl(280,100%,50%" stroke-width="1.00" />
 <line id="174" x1="50.00" y1="50.00" x2="56.84" y2="68.79"
        stroke="hsl(290,100%,50%" stroke-width="1.00" />
 <line id="175" x1="56.84" y1="68.79" x2="76.54" y2="72.27"
        stroke="hsl(290,100%,50%" stroke-width="1.00" />
 <line id="176" x1="76.54" y1="72.27" x2="89.39" y2="56.95"
        stroke="hsl(290,100%,50%" stroke-width="1.00" />
 <line id="177" x1="89.39" y1="56.95" x2="82.55" y2="38.15"
        stroke="hsl(290,100%,50%" stroke-width="1.00" />
 <line id="178" x1="82.55" y1="38.15" x2="62.86" y2="34.68"
        stroke="hsl(290,100%,50%" stroke-width="1.00" />
 <line id="179" x1="62.86" y1="34.68" x2="50.00" y2="50.00"
        stroke="hsl(290,100%,50%" stroke-width="1.00" />
 <line id="180" x1="50.00" y1="50.00" x2="60.00" y2="67.32"
        stroke="hsl(300,100%,50%" stroke-width="1.00" />
 <line id="181" x1="60.00" y1="67.32" x2="80.00" y2="67.32"
        stroke="hsl(300,100%,50%" stroke-width="1.00" />
 <line id="182" x1="80.00" y1="67.32" x2="90.00" y2="50.00"
        stroke="hsl(300,100%,50%" stroke-width="1.00" />
 <line id="183" x1="90.00" y1="50.00" x2="80.00" y2="32.68"
        stroke="hsl(300,100%,50%" stroke-width="1.00" />
 <line id="184" x1="80.00" y1="32.68" x2="60.00" y2="32.68"
        stroke="hsl(300,100%,50%" stroke-width="1.00" />
 <line id="185" x1="60.00" y1="32.68" x2="50.00" y2="50.00"
        stroke="hsl(300,100%,50%" stroke-width="1.00" />
 <line id="186" x1="50.00" y1="50.00" x2="62.86" y2="65.32"
        stroke="hsl(310,100%,50%" stroke-width="1.00" />
 <line id="187" x1="62.86" y1="65.32" x2="82.55" y2="61.85"
        stroke="hsl(310,100%,50%" stroke-width="1.00" />
 <line id="188" x1="82.55" y1="61.85" x2="89.39" y2="43.05"
        stroke="hsl(310,100%,50%" stroke-width="1.00" />
 <line id="189" x1="89.39" y1="43.05" x2="76.54" y2="27.73"
        stroke="hsl(310,100%,50%" stroke-width="1.00" />
 <line id="190" x1="76.54" y1="27.73" x2="56.84" y2="31.21"
        stroke="hsl(310,100%,50%" stroke-width="1.00" />
 <line id="191" x1="56.84" y1="31.21" x2="50.00" y2="50.00"
        stroke="hsl(310,100%,50%" stroke-width="1.00" />
 <line id="192" x1="50.00" y1="50.00" x2="65.32" y2="62.86"
        stroke="hsl(320,100%,50%" stroke-width="1.00" />
 <line id="193" x1="65.32" y1="62.86" x2="84.11" y2="56.02"
        stroke="hsl(320,100%,50%" stroke-width="1.00" />
 <line id="194" x1="84.11" y1="56.02" x2="87.59" y2="36.32"
        stroke="hsl(320,100%,50%" stroke-width="1.00" />
 <line id="195" x1="87.59" y1="36.32" x2="72.27" y2="23.46"
        stroke="hsl(320,100%,50%" stroke-width="1.00" />
 <line id="196" x1="72.27" y1="23.46" x2="53.47" y2="30.30"
        stroke="hsl(320,100%,50%" stroke-width="1.00" />
 <line id="197" x1="53.47" y1="30.30" x2="50.00" y2="50.00"
        stroke="hsl(320,100%,50%" stroke-width="1.00" />
 <line id="198" x1="50.00" y1="50.00" x2="67.32" y2="60.00"
        stroke="hsl(330,100%,50%" stroke-width="1.00" />
 <line id="199" x1="67.32" y1="60.00" x2="84.64" y2="50.00"
        stroke="hsl(330,100%,50%" stroke-width="1.00" />
 <line id="200" x1="84.64" y1="50.00" x2="84.64" y2="30.00"
        stroke="hsl(330,100%,50%" stroke-width="1.00" />
 <line id="201" x1="84.64" y1="30.00" x2="67.32" y2="20.00"
        stroke="hsl(330,100%,50%" stroke-width="1.00" />
 <line id="202" x1="67.32" y1="20.00" x2="50.00" y2="30.00"
        stroke="hsl(330,100%,50%" stroke-width="1.00" />
 <line id="203" x1="50.00" y1="30.00" x2="50.00" y2="50.00"
        stroke="hsl(330,100%,50%" stroke-width="1.00" />
 <line id="204" x1="50.00" y1="50.00" x2="68.79" y2="56.84"
        stroke="hsl(340,100%,50%" stroke-width="1.00" />
 <line id="205" x1="68.79" y1="56.84" x2="84.11" y2="43.98"
        stroke="hsl(340,100%,50%" stroke-width="1.00" />
 <line id="206" x1="84.11" y1="43.98" x2="80.64" y2="24.29"
        stroke="hsl(340,100%,50%" stroke-width="1.00" />
 <line id="207" x1="80.64" y1="24.29" x2="61.85" y2="17.45"
        stroke="hsl(340,100%,50%" stroke-width="1.00" />
 <line id="208" x1="61.85" y1="17.45" x2="46.53" y2="30.30"
        stroke="hsl(340,100%,50%" stroke-width="1.00" />
 <line id="209" x1="46.53" y1="30.30" x2="50.00" y2="50.00"
        stroke="hsl(340,100%,50%" stroke-width="1.00" />
 <line id="210" x1="50.00" y1="50.00" x2="69.70" y2="53.47"
        stroke="hsl(350,100%,50%" stroke-width="1.00" />
 <line id="211" x1="69.70" y1="53.47" x2="82.55" y2="38.15"
        stroke="hsl(350,100%,50%" stroke-width="1.00" />
 <line id="212" x1="82.55" y1="38.15" x2="75.71" y2="19.36"
        stroke="hsl(350,100%,50%" stroke-width="1.00" />
 <line id="213" x1="75.71" y1="19.36" x2="56.02" y2="15.89"
        stroke="hsl(350,100%,50%" stroke-width="1.00" />
 <line id="214" x1="56.02" y1="15.89" x2="43.16" y2="31.21"
        stroke="hsl(350,100%,50%" stroke-width="1.00" />
 <line id="215" x1="43.16" y1="31.21" x2="50.00" y2="50.00"
        stroke="hsl(350,100%,50%" stroke-width="1.00" />
</svg>
